<svg xmlns="http://www.w3.org/2000/svg" xmlns:xlink="http://www.w3.org/1999/xlink" width="150" zoomAndPan="magnify" viewBox="0 0 112.5 112.499997" height="150" preserveAspectRatio="xMidYMid meet" version="1.0"><defs><clipPath id="107e85eb5d"><path d="M 3.210938 1.605469 L 112.003906 1.605469 L 112.003906 110.621094 L 3.210938 110.621094 Z M 3.210938 1.605469 " clip-rule="nonzero"/></clipPath></defs><g clip-path="url(#107e85eb5d)"><path fill="#5ce1e6" d="M 112.019531 56.019531 C 112.019531 86.066406 87.664062 110.421875 57.621094 110.421875 C 27.574219 110.421875 3.21875 86.066406 3.21875 56.019531 C 3.21875 25.976562 27.574219 1.621094 57.621094 1.621094 C 87.664062 1.621094 112.019531 25.976562 112.019531 56.019531 M 86.675781 56.019531 C 86.675781 39.972656 73.667969 26.964844 57.621094 26.964844 C 41.574219 26.964844 28.566406 39.972656 28.566406 56.019531 C 28.566406 72.066406 41.574219 85.078125 57.621094 85.078125 C 73.667969 85.078125 86.675781 72.066406 86.675781 56.019531 Z M 86.675781 56.019531 " fill-opacity="1" fill-rule="nonzero"/></g></svg>